<svg width="16" height="16" viewBox="0 0 16 16" fill="none" xmlns="http://www.w3.org/2000/svg">
<path d="M14.4219 4.43126C14.2124 3.94632 13.9104 3.50687 13.5328 3.13751C13.1549 2.76705 12.7093 2.47265 12.2203 2.27032C11.7132 2.05969 11.1694 1.95187 10.6203 1.95314C9.85 1.95314 9.09844 2.16407 8.44531 2.56251C8.28906 2.65782 8.14062 2.76251 8 2.87657C7.85938 2.76251 7.71094 2.65782 7.55469 2.56251C6.90156 2.16407 6.15 1.95314 5.37969 1.95314C4.825 1.95314 4.2875 2.05939 3.77969 2.27032C3.28906 2.47345 2.84687 2.76564 2.46719 3.13751C2.08906 3.50645 1.787 3.94601 1.57812 4.43126C1.36094 4.93595 1.25 5.47189 1.25 6.02345C1.25 6.54376 1.35625 7.08595 1.56719 7.63751C1.74375 8.09845 1.99687 8.57657 2.32031 9.05939C2.83281 9.82345 3.5375 10.6203 4.4125 11.4281C5.8625 12.7672 7.29844 13.6922 7.35938 13.7297L7.72969 13.9672C7.89375 14.0719 8.10469 14.0719 8.26875 13.9672L8.63906 13.7297C8.7 13.6906 10.1344 12.7672 11.5859 11.4281C12.4609 10.6203 13.1656 9.82345 13.6781 9.05939C14.0016 8.57657 14.2562 8.09845 14.4312 7.63751C14.6422 7.08595 14.7484 6.54376 14.7484 6.02345C14.75 5.47189 14.6391 4.93595 14.4219 4.43126ZM8 12.7313C8 12.7313 2.4375 9.1672 2.4375 6.02345C2.4375 4.43126 3.75469 3.14064 5.37969 3.14064C6.52187 3.14064 7.5125 3.77814 8 4.70939C8.4875 3.77814 9.47813 3.14064 10.6203 3.14064C12.2453 3.14064 13.5625 4.43126 13.5625 6.02345C13.5625 9.1672 8 12.7313 8 12.7313Z" fill="#EB0808"/>
</svg>
